<svg width="126" height="24" viewBox="0 0 126 24" fill="none" xmlns="http://www.w3.org/2000/svg">
<path d="M3.204 11.556C3.204 11.796 3.36 11.994 3.672 12.15C3.996 12.294 4.386 12.426 4.842 12.546C5.298 12.654 5.754 12.798 6.21 12.978C6.666 13.146 7.05 13.434 7.362 13.842C7.686 14.25 7.848 14.76 7.848 15.372C7.848 16.296 7.5 17.01 6.804 17.514C6.12 18.006 5.262 18.252 4.23 18.252C2.382 18.252 1.122 17.538 0.45 16.11L2.466 14.976C2.73 15.756 3.318 16.146 4.23 16.146C5.058 16.146 5.472 15.888 5.472 15.372C5.472 15.132 5.31 14.94 4.986 14.796C4.674 14.64 4.29 14.502 3.834 14.382C3.378 14.262 2.922 14.112 2.466 13.932C2.01 13.752 1.62 13.47 1.296 13.086C0.984 12.69 0.828 12.198 0.828 11.61C0.828 10.722 1.152 10.026 1.8 9.522C2.46 9.006 3.276 8.748 4.248 8.748C4.98 8.748 5.646 8.916 6.246 9.252C6.846 9.576 7.32 10.044 7.668 10.656L5.688 11.736C5.4 11.124 4.92 10.818 4.248 10.818C3.948 10.818 3.696 10.884 3.492 11.016C3.3 11.148 3.204 11.328 3.204 11.556ZM13.5023 18.252C12.1463 18.252 11.0123 17.796 10.1003 16.884C9.20025 15.972 8.75025 14.844 8.75025 13.5C8.75025 12.156 9.20025 11.028 10.1003 10.116C11.0123 9.204 12.1463 8.748 13.5023 8.748C14.3783 8.748 15.1763 8.958 15.8963 9.378C16.6163 9.798 17.1623 10.362 17.5343 11.07L15.5363 12.24C15.3563 11.868 15.0803 11.574 14.7083 11.358C14.3483 11.142 13.9403 11.034 13.4843 11.034C12.7883 11.034 12.2123 11.268 11.7563 11.736C11.3003 12.192 11.0723 12.78 11.0723 13.5C11.0723 14.208 11.3003 14.796 11.7563 15.264C12.2123 15.72 12.7883 15.948 13.4843 15.948C13.9523 15.948 14.3663 15.846 14.7263 15.642C15.0983 15.426 15.3743 15.132 15.5543 14.76L17.5703 15.912C17.1743 16.62 16.6163 17.19 15.8963 17.622C15.1763 18.042 14.3783 18.252 13.5023 18.252ZM21.1906 10.548C21.4066 9.972 21.7606 9.54 22.2526 9.252C22.7566 8.964 23.3146 8.82 23.9266 8.82V11.412C23.2186 11.328 22.5826 11.472 22.0186 11.844C21.4666 12.216 21.1906 12.834 21.1906 13.698V18H18.8686V9H21.1906V10.548ZM32.6187 16.884C31.6947 17.796 30.5667 18.252 29.2347 18.252C27.9027 18.252 26.7747 17.796 25.8507 16.884C24.9387 15.96 24.4827 14.832 24.4827 13.5C24.4827 12.168 24.9387 11.046 25.8507 10.134C26.7747 9.21 27.9027 8.748 29.2347 8.748C30.5667 8.748 31.6947 9.21 32.6187 10.134C33.5427 11.046 34.0047 12.168 34.0047 13.5C34.0047 14.832 33.5427 15.96 32.6187 16.884ZM27.4887 15.282C27.9567 15.75 28.5387 15.984 29.2347 15.984C29.9307 15.984 30.5127 15.75 30.9807 15.282C31.4487 14.814 31.6827 14.22 31.6827 13.5C31.6827 12.78 31.4487 12.186 30.9807 11.718C30.5127 11.25 29.9307 11.016 29.2347 11.016C28.5387 11.016 27.9567 11.25 27.4887 11.718C27.0327 12.186 26.8047 12.78 26.8047 13.5C26.8047 14.22 27.0327 14.814 27.4887 15.282ZM35.6382 18V4.86H37.9602V18H35.6382ZM40.0854 18V4.86H42.4074V18H40.0854ZM55.8547 5.4H58.1767V18H55.8547V16.938C55.1707 17.814 54.1987 18.252 52.9387 18.252C51.7267 18.252 50.6887 17.796 49.8247 16.884C48.9727 15.96 48.5467 14.832 48.5467 13.5C48.5467 12.168 48.9727 11.046 49.8247 10.134C50.6887 9.21 51.7267 8.748 52.9387 8.748C54.1987 8.748 55.1707 9.186 55.8547 10.062V5.4ZM51.5707 15.336C52.0507 15.804 52.6507 16.038 53.3707 16.038C54.0907 16.038 54.6847 15.804 55.1527 15.336C55.6207 14.856 55.8547 14.244 55.8547 13.5C55.8547 12.756 55.6207 12.15 55.1527 11.682C54.6847 11.202 54.0907 10.962 53.3707 10.962C52.6507 10.962 52.0507 11.202 51.5707 11.682C51.1027 12.15 50.8687 12.756 50.8687 13.5C50.8687 14.244 51.1027 14.856 51.5707 15.336ZM67.9683 16.884C67.0443 17.796 65.9163 18.252 64.5843 18.252C63.2523 18.252 62.1243 17.796 61.2003 16.884C60.2883 15.96 59.8323 14.832 59.8323 13.5C59.8323 12.168 60.2883 11.046 61.2003 10.134C62.1243 9.21 63.2523 8.748 64.5843 8.748C65.9163 8.748 67.0443 9.21 67.9683 10.134C68.8923 11.046 69.3543 12.168 69.3543 13.5C69.3543 14.832 68.8923 15.96 67.9683 16.884ZM62.8383 15.282C63.3063 15.75 63.8883 15.984 64.5843 15.984C65.2803 15.984 65.8623 15.75 66.3303 15.282C66.7983 14.814 67.0323 14.22 67.0323 13.5C67.0323 12.78 66.7983 12.186 66.3303 11.718C65.8623 11.25 65.2803 11.016 64.5843 11.016C63.8883 11.016 63.3063 11.25 62.8383 11.718C62.3823 12.186 62.1543 12.78 62.1543 13.5C62.1543 14.22 62.3823 14.814 62.8383 15.282ZM80.7702 9H83.2362L80.3742 18H78.1602L76.5042 12.546L74.8482 18H72.6342L69.7722 9H72.2382L73.7682 14.526L75.4062 9H77.6022L79.2402 14.544L80.7702 9ZM89.4918 8.748C90.4758 8.748 91.2858 9.078 91.9218 9.738C92.5698 10.398 92.8938 11.31 92.8938 12.474V18H90.5718V12.762C90.5718 12.162 90.4098 11.706 90.0858 11.394C89.7618 11.07 89.3298 10.908 88.7898 10.908C88.1898 10.908 87.7098 11.094 87.3498 11.466C86.9898 11.838 86.8098 12.396 86.8098 13.14V18H84.4878V9H86.8098V10.008C87.3738 9.168 88.2678 8.748 89.4918 8.748Z" fill="white"/>
<path d="M126 16L124.59 14.59L119 20.17V0H117V20.17L111.42 14.58L110 16L118 24L126 16Z" fill="white"/>
</svg>
